#!OML:ASF F:\VICON\USERDATA\INSTALL\rory3\rory3.ASF
:FULLY-SPECIFIED
:DEGREES
192
root -14.2061 17.7022 10.8393 -3.64825 23.5723 0.188886
lowerback 10.6861 -0.626716 -1.70672
upperback 1.0682 -0.961628 1.19584
thorax -4.82866 -0.42561 2.35147
lowerneck -21.1481 -5.3332 -11.8934
upperneck 29.7849 -5.55151 6.74025
head 14.3284 -2.79502 3.74739
rclavicle 3.19049e-014 -1.66979e-014
rhumerus -38.8301 -17.2434 -75.3796
rradius 22.2305
rwrist 10.0267
rhand -16.2256 9.69421
rfingers 7.12502
rthumb 9.98253 -20.0491
lclavicle 3.19049e-014 -1.66979e-014
lhumerus -31.3836 -4.0856 90.441
lradius 48.2215
lwrist -1.46219
lhand -19.8807 26.2877
lfingers 7.12502
lthumb 6.45499 56.1694
rfemur -14.6487 4.62333 12.0893
rtibia 27.1604
rfoot -9.55748 12.4302
rtoes -11.8342
lfemur 2.52879 -14.0763 -25.0133
ltibia 38.9663
lfoot -6.43463 -12.7446
ltoes 0.752125
193
root -14.2104 17.7223 10.9628 -3.8066 24.5882 -0.317651
lowerback 10.4496 -0.560113 -1.33385
upperback 1.15273 -0.820869 1.30575
thorax -4.61934 -0.365293 2.23002
lowerneck -21.1697 -5.3615 -11.8785
upperneck 29.9237 -5.61661 6.80434
head 14.4042 -2.81164 3.76412
rclavicle -2.35436e-014 -1.59028e-015
rhumerus -38.7984 -17.1224 -75.5092
rradius 22.1679
rwrist 10.1805
rhand -16.49 9.63056
rfingers 7.12502
rthumb 9.72745 -20.1248
lclavicle -2.35436e-014 -1.59028e-015
lhumerus -31.2932 -4.0259 90.529
lradius 47.5541
lwrist -1.69722
lhand -19.7769 26.6099
lfingers 7.12502
lthumb 6.55519 56.4885
rfemur -13.8998 4.64109 12.8092
rtibia 26.9783
rfoot -9.76947 11.6263
rtoes -11.5536
lfemur 2.01546 -13.7066 -24.2045
ltibia 40.2833
lfoot -5.10927 -12.902
ltoes 2.564
194
root -14.2362 17.737 11.0538 -4.04486 25.328 -1.09072
lowerback 10.7188 -0.432028 -0.806479
upperback 1.11884 -0.579041 1.50088
thorax -4.81976 -0.251242 2.10619
lowerneck -21.1867 -5.35498 -11.8723
upperneck 30.0135 -5.61223 6.8298
head 14.448 -2.80421 3.77807
rclavicle 4.69629e-015 5.96354e-015
rhumerus -38.6746 -16.8349 -75.6916
rradius 22.0712
rwrist 10.7513
rhand -16.6807 9.64568
rfingers 7.12502
rthumb 9.54345 -20.1182
lclavicle 4.69629e-015 5.96354e-015
lhumerus -31.2827 -3.74022 90.5289
lradius 46.9498
lwrist -2.04521
lhand -19.4716 26.56
lfingers 7.12502
lthumb 6.84988 56.4292
rfemur -13.4795 5.2454 13.8563
rtibia 26.8563
rfoot -9.81707 10.055
rtoes -12.2584
lfemur 1.21375 -12.9596 -22.9347
ltibia 41.6178
lfoot -3.73312 -12.9224
ltoes 3.12412
195
root -14.2508 17.7463 11.1552 -4.16976 26.258 -1.35786
lowerback 10.9689 -0.33636 -0.757967
upperback 1.05657 -0.439408 1.60416
thorax -5.02997 -0.179648 2.17045
lowerneck -21.1535 -5.29539 -11.8344
upperneck 30.1676 -5.5083 6.73695
head 14.492 -2.76837 3.7588
rclavicle -1.32142e-013 3.57812e-015
rhumerus -38.5499 -16.1038 -75.9469
rradius 21.807
rwrist 11.2053
rhand -16.8141 9.52069
rfingers 7.12502
rthumb 9.41475 -20.249
lclavicle -1.32142e-013 3.57812e-015
lhumerus -31.3845 -3.29963 90.5511
lradius 46.2765
lwrist -2.40752
lhand -19.2441 27.0265
lfingers 7.12502
lthumb 7.06955 56.8885
rfemur -12.8898 5.36142 14.3259
rtibia 26.7832
rfoot -10.0307 8.64595
rtoes -12.9219
lfemur 0.566623 -12.184 -22.2466
ltibia 42.8723
lfoot -2.64364 -12.8696
ltoes 1.95524
196
root -14.2593 17.7573 11.2607 -4.0978 27.3732 -1.21124
lowerback 11.0899 -0.21692 -1.03518
upperback 1.01636 -0.315798 1.57448
thorax -5.14361 -0.111606 2.27933
lowerneck -21.1656 -5.26621 -11.7294
upperneck 30.3798 -5.46091 6.61836
head 14.5757 -2.75218 3.70785
rclavicle 1.22128e-014 1.31198e-014
rhumerus -38.4755 -15.4935 -76.2247
rradius 21.6417
rwrist 11.3596
rhand -16.916 9.24564
rfingers 7.12502
rthumb 9.31642 -20.5285
lclavicle 1.22128e-014 1.31198e-014
lhumerus -31.4217 -3.06608 90.6333
lradius 45.5023
lwrist -2.55296
lhand -19.5058 27.8337
lfingers 7.12502
lthumb 6.81693 57.704
rfemur -12.2766 4.99662 14.3209
rtibia 26.7173
rfoot -10.2872 7.92933
rtoes -12.7528
lfemur -0.0839939 -11.5417 -22.0132
ltibia 44.0717
lfoot -1.61052 -12.7479
ltoes 1.8994
197
root -14.2675 17.7749 11.3557 -4.02833 28.6409 -1.27545
lowerback 11.2488 -0.195113 -0.908949
upperback 0.91821 -0.276194 1.47719
thorax -5.33834 -0.0932897 2.10246
lowerneck -21.1221 -5.22043 -11.5983
upperneck 30.5213 -5.44927 6.63004
head 14.6229 -2.72984 3.6986
rclavicle 4.28754e-014 -1.78906e-015
rhumerus -38.5264 -15.5762 -76.2657
rradius 21.551
rwrist 12.3534
rhand -16.7613 9.06601
rfingers 7.12502
rthumb 9.46563 -20.7014
lclavicle 4.28754e-014 -1.78906e-015
lhumerus -31.5197 -2.9142 90.5316
lradius 44.7964
lwrist -2.61307
lhand -19.6116 27.5433
lfingers 7.12502
lthumb 6.71473 57.4168
rfemur -11.7834 4.35429 14.4902
rtibia 26.6867
rfoot -10.5804 7.33866
rtoes -13.2014
lfemur -0.868059 -11.0162 -21.5214
ltibia 45.1561
lfoot -0.594851 -12.6862
ltoes 2.75256
